<svg width="39" height="47" fill="none" xmlns="http://www.w3.org/2000/svg"><path d="M15.92 45.803V7.367M5.405 11.761 26.433 32.79m.035-21.063-6.8 6.8M5.372 32.823 15.92 22.274m14.895.002H1M22.812 9.258v6.123m6.122.002h-6.122M27.833 1v8.795m-4.33-7.955 4.328 4.327m4.329-4.325-4.327 4.327m10.377 5.073h-8.797m7.958-4.332-4.328 4.33m4.326 4.33-4.328-4.328M11.59 8.198l4.327 4.327M20.25 8.2l-4.33 4.328M2.904 15.383h6.12m.005-6.121v6.12M1.841 26.605l4.33-4.327m-4.327-4.33 4.33 4.328m2.855 13.017V29.17m-6.123-.001H9.03m11.222 7.184-4.33-4.327m-4.33 4.325 4.327-4.327m13.018-2.855h-6.12m-.005 6.12v-6.12m7.185-11.223-4.328 4.327m4.328 4.33-4.33-4.327m-9.75-9.751-3.484 6.262m3.484-6.262-6.893 2.858m-2.866 6.903L12.42 18.8m-6.262 3.486 2.858-6.893m-2.858 6.872 6.262 3.486m-6.262-3.486 2.858 6.893m6.901 2.868-3.484-6.262m3.484 6.262-6.893-2.858m6.872 2.858 3.486-6.262m-3.486 6.262 6.895-2.858m2.866-6.903-6.262 3.486m6.262-3.486-2.858 6.893" stroke="#B9A67D" stroke-width="1.371" stroke-linecap="round" stroke-linejoin="round"/></svg>