<svg width="171" height="50" fill="none" xmlns="http://www.w3.org/2000/svg"><path d="M53.839 39.18v-5.23h1.668c.32 0 .597.032.828.095.234.064.425.154.573.27.151.117.262.26.332.431.07.168.106.358.106.57 0 .129-.02.253-.062.372a1.05 1.05 0 0 1-.179.332c-.08.102-.182.194-.306.274-.122.08-.266.146-.431.197.382.075.67.213.865.412.195.2.292.463.292.789 0 .221-.041.423-.124.606-.08.182-.2.34-.358.47a1.67 1.67 0 0 1-.576.307c-.23.07-.49.106-.782.106H53.84Zm.704-2.383v1.822h1.132c.202 0 .376-.023.522-.07a.967.967 0 0 0 .357-.193.766.766 0 0 0 .208-.3c.044-.116.066-.244.066-.383a.778.778 0 0 0-.288-.638c-.193-.158-.481-.237-.865-.237h-1.132Zm0-.503h.934c.2 0 .373-.022.519-.066.148-.044.27-.105.365-.182a.71.71 0 0 0 .215-.281.947.947 0 0 0 .07-.365c0-.31-.093-.535-.278-.676-.185-.143-.472-.215-.861-.215h-.964v1.785Zm6.033 2.325c.217 0 .41-.037.58-.11a1.2 1.2 0 0 0 .431-.306c.12-.132.21-.289.27-.471a1.83 1.83 0 0 0 .095-.602v-3.18h.705v3.18c0 .301-.049.581-.146.84a1.932 1.932 0 0 1-.413.67 1.88 1.88 0 0 1-.653.442 2.25 2.25 0 0 1-.869.16c-.321 0-.61-.053-.868-.16a1.916 1.916 0 0 1-.657-.441 1.977 1.977 0 0 1-.416-.672 2.413 2.413 0 0 1-.143-.84v-3.178h.705v3.175c0 .219.03.42.09.602.064.183.154.34.27.471.12.132.265.235.435.31.173.073.368.11.584.11Zm5.314-1.522v2.084h-.709v-2.084l-1.916-3.146h.62c.064 0 .114.015.15.047.037.03.068.068.095.117l1.197 2.033a5.152 5.152 0 0 1 .212.46c.027-.073.057-.146.091-.22.034-.075.073-.155.117-.24l1.194-2.033a.398.398 0 0 1 .09-.113.22.22 0 0 1 .15-.051h.625l-1.917 3.146Zm1.722 1.635a.404.404 0 0 1 .434-.413c.073 0 .138.014.194.04a.37.37 0 0 1 .138.114.46.46 0 0 1 .088.164c.02.06.03.128.03.2a1.521 1.521 0 0 1-.182.69 2.04 2.04 0 0 1-.509.643l-.11-.106a.167.167 0 0 1-.04-.047.122.122 0 0 1-.01-.055c0-.017.005-.034.014-.051a.374.374 0 0 1 .04-.048 2.05 2.05 0 0 0 .092-.11 1.398 1.398 0 0 0 .222-.346.88.88 0 0 0 .073-.226h-.047a.414.414 0 0 1-.31-.124.463.463 0 0 1-.117-.325Zm5.818-.113c.216 0 .41-.037.58-.11a1.2 1.2 0 0 0 .43-.306c.12-.132.21-.289.27-.471a1.81 1.81 0 0 0 .095-.602v-3.18h.705v3.18c0 .301-.049.581-.146.84a1.932 1.932 0 0 1-.413.67 1.88 1.88 0 0 1-.653.442c-.258.107-.547.16-.869.16-.32 0-.61-.053-.868-.16a1.916 1.916 0 0 1-.657-.441 1.977 1.977 0 0 1-.416-.672 2.413 2.413 0 0 1-.143-.84v-3.178h.705v3.175c0 .219.03.42.09.602.064.183.154.34.271.471.12.132.264.235.434.31.173.073.368.11.584.11Zm6.024-3.851a.28.28 0 0 1-.073.084.155.155 0 0 1-.091.026c-.041 0-.09-.021-.146-.062a2.168 2.168 0 0 0-.515-.274 1.286 1.286 0 0 0-.427-.062c-.158 0-.298.022-.42.066a.897.897 0 0 0-.302.171.718.718 0 0 0-.183.26.804.804 0 0 0-.062.317c0 .146.035.267.106.365a.97.97 0 0 0 .285.244c.119.068.253.128.401.18.151.048.304.099.46.152.158.054.312.115.46.183.15.066.285.15.401.252a1.1 1.1 0 0 1 .285.376c.073.148.11.33.11.547 0 .229-.04.444-.117.646-.078.2-.192.374-.343.522a1.573 1.573 0 0 1-.551.35 2.012 2.012 0 0 1-.741.128c-.341 0-.65-.06-.927-.182a2.2 2.2 0 0 1-.712-.5l.204-.336a.253.253 0 0 1 .07-.066.16.16 0 0 1 .094-.029c.032 0 .067.014.106.04.042.025.088.056.139.095.051.04.11.082.175.128a1.485 1.485 0 0 0 .511.226c.107.024.228.037.362.037.167 0 .317-.023.448-.07a.949.949 0 0 0 .333-.193.853.853 0 0 0 .211-.303 1 1 0 0 0 .073-.39.639.639 0 0 0-.11-.387.864.864 0 0 0-.28-.256 1.9 1.9 0 0 0-.402-.171c-.15-.05-.304-.098-.46-.146a5.262 5.262 0 0 1-.46-.176 1.486 1.486 0 0 1-.401-.255 1.2 1.2 0 0 1-.285-.39 1.43 1.43 0 0 1-.106-.585c0-.185.036-.363.106-.536a1.41 1.41 0 0 1 .314-.46 1.56 1.56 0 0 1 .507-.321c.203-.08.434-.12.694-.12.292 0 .557.045.796.138.24.092.452.226.635.401l-.172.336Zm4.511-.818v.577h-2.514v1.738h2.036v.554h-2.036v1.785h2.518l-.004.577h-3.223v-5.23h3.223Zm.713 4.782a.404.404 0 0 1 .434-.413c.074 0 .138.014.194.04a.464.464 0 0 1 .226.277c.02.062.03.129.03.202a1.525 1.525 0 0 1-.183.69 2.04 2.04 0 0 1-.507.642l-.11-.106a.167.167 0 0 1-.04-.047.122.122 0 0 1-.011-.055.1.1 0 0 1 .015-.051.366.366 0 0 1 .04-.048 2.1 2.1 0 0 0 .091-.11 1.41 1.41 0 0 0 .223-.346.88.88 0 0 0 .073-.226h-.048a.413.413 0 0 1-.31-.124.463.463 0 0 1-.117-.325ZM91.7 33.95v.577h-2.515v1.738h2.037v.554h-2.037v1.785h2.519l-.004.577h-3.223v-5.23H91.7Zm1.355 0a.375.375 0 0 1 .139.026.442.442 0 0 1 .106.095l3.025 3.938-.014-.182a4.185 4.185 0 0 1-.004-.172v-3.704h.62v5.23h-.353a.316.316 0 0 1-.143-.03.365.365 0 0 1-.11-.098l-3.025-3.938a4.755 4.755 0 0 1 .015.34v3.726h-.62v-5.23h.364Zm7.013 3.424c0 .292-.037.554-.11.785a1.57 1.57 0 0 1-.317.588c-.139.158-.31.28-.515.364a1.8 1.8 0 0 1-.704.128c-.241 0-.487-.034-.737-.102l.036-.416a.161.161 0 0 1 .044-.098c.027-.027.067-.04.12-.04a.61.61 0 0 1 .172.032c.073.022.17.033.292.033.16 0 .304-.024.43-.073a.762.762 0 0 0 .318-.226c.085-.102.15-.233.194-.39.046-.161.069-.351.069-.57V33.95h.708v3.423Zm6.116-.806c0 .391-.062.751-.186 1.08a2.369 2.369 0 0 1-1.343 1.394 2.762 2.762 0 0 1-1.051.194c-.385 0-.735-.065-1.052-.194a2.385 2.385 0 0 1-.814-.55 2.476 2.476 0 0 1-.525-.844 3.036 3.036 0 0 1-.186-1.08c0-.392.062-.751.186-1.077.124-.329.299-.61.525-.847a2.36 2.36 0 0 1 .814-.555 2.72 2.72 0 0 1 1.052-.197c.384 0 .734.066 1.051.197.318.132.591.317.817.555.227.236.402.518.526.847.124.326.186.685.186 1.077Zm-.726 0c0-.322-.044-.61-.132-.865a1.795 1.795 0 0 0-.372-.647 1.607 1.607 0 0 0-.584-.408 1.982 1.982 0 0 0-.766-.143c-.28 0-.535.048-.763.143a1.639 1.639 0 0 0-.588.408 1.81 1.81 0 0 0-.372.647 2.647 2.647 0 0 0-.132.865c0 .32.044.61.132.865.087.253.212.468.372.646.163.175.359.31.588.405.228.092.483.139.763.139.282 0 .537-.047.766-.14.229-.094.423-.23.584-.404.161-.178.285-.393.372-.646a2.65 2.65 0 0 0 .132-.865Zm3.425.529v2.084h-.708v-2.084l-1.917-3.146h.621c.063 0 .113.015.15.047.036.03.068.068.095.117l1.197 2.033a6.306 6.306 0 0 1 .211.46c.027-.073.058-.146.092-.22a6.17 6.17 0 0 1 .116-.24l1.194-2.033a.397.397 0 0 1 .091-.113.22.22 0 0 1 .15-.051h.624l-1.916 3.146ZM69.907 17.62c0 1.326-.221 2.544-.663 3.653a8.394 8.394 0 0 1-1.865 2.866c-.8.801-1.764 1.423-2.89 1.865-1.127.442-2.378.663-3.755.663H53.84V8.572h6.895c1.377 0 2.628.225 3.754.676 1.127.442 2.09 1.063 2.891 1.864a8.261 8.261 0 0 1 1.865 2.853c.442 1.11.663 2.328.663 3.654Zm-3.454 0c0-.993-.133-1.882-.4-2.666-.26-.793-.639-1.46-1.14-2.002a4.865 4.865 0 0 0-1.801-1.264c-.701-.292-1.494-.438-2.378-.438h-3.516v12.739h3.516c.884 0 1.677-.146 2.378-.438a4.947 4.947 0 0 0 1.802-1.251c.5-.551.88-1.218 1.138-2.003.267-.792.4-1.685.4-2.678Zm14.017 9.047c-.292 0-.517-.042-.676-.125-.159-.092-.284-.271-.375-.538l-.276-.914c-.325.292-.642.55-.95.776-.31.217-.63.4-.964.55-.334.15-.693.264-1.077.339a6.405 6.405 0 0 1-1.251.112 5.03 5.03 0 0 1-1.502-.213 3.375 3.375 0 0 1-1.189-.663 2.95 2.95 0 0 1-.775-1.088c-.184-.434-.276-.94-.276-1.515 0-.484.125-.96.376-1.426.258-.476.684-.901 1.276-1.277.592-.383 1.38-.7 2.365-.95.985-.251 2.211-.393 3.68-.426v-.751c0-.86-.184-1.493-.551-1.902-.367-.417-.897-.626-1.59-.626-.5 0-.917.058-1.25.175-.326.117-.614.25-.864.4l-.689.389c-.2.116-.425.175-.675.175a.916.916 0 0 1-.55-.163 1.492 1.492 0 0 1-.364-.4l-.55-.989c1.476-1.351 3.253-2.027 5.33-2.027.751 0 1.423.125 2.015.375a4.15 4.15 0 0 1 1.502 1.026c.409.434.717.956.926 1.565a5.93 5.93 0 0 1 .325 2.002v8.109H80.47Zm-4.618-1.927c.634 0 1.18-.113 1.64-.338.467-.234.921-.584 1.364-1.051v-2.165c-.901.041-1.657.12-2.266.238-.6.108-1.084.25-1.451.425s-.63.38-.789.613a1.332 1.332 0 0 0-.237.764c0 .542.158.93.475 1.163.326.234.747.35 1.264.35Zm8.93 1.927v-12.84h1.89c.4 0 .663.188.788.564l.213 1.013c.259-.267.53-.508.814-.725a6.13 6.13 0 0 1 .913-.564 4.838 4.838 0 0 1 1.039-.363 5.421 5.421 0 0 1 1.201-.125c.7 0 1.322.121 1.865.363a3.54 3.54 0 0 1 1.351 1.001 4.2 4.2 0 0 1 .826 1.54c.192.592.288 1.247.288 1.964v8.172h-3.091v-8.172c0-.784-.18-1.389-.538-1.814-.359-.434-.905-.65-1.64-.65a3.22 3.22 0 0 0-1.501.362c-.467.242-.91.572-1.327.989v9.285h-3.09Zm23.388 0c-.409 0-.668-.188-.776-.563l-.263-1.24a7.625 7.625 0 0 1-.838.814c-.292.242-.609.45-.951.626a4.587 4.587 0 0 1-1.089.4c-.384.1-.801.15-1.251.15a4.251 4.251 0 0 1-1.928-.437 4.375 4.375 0 0 1-1.514-1.264c-.417-.56-.742-1.247-.976-2.065-.225-.818-.338-1.752-.338-2.803 0-.951.13-1.836.388-2.653a6.454 6.454 0 0 1 1.114-2.128 5.136 5.136 0 0 1 1.739-1.401c.676-.342 1.435-.513 2.278-.513.717 0 1.331.117 1.839.35.509.226.964.53 1.364.914V8.07h3.091v18.596h-1.889Zm-4.117-2.265c.642 0 1.189-.134 1.639-.4.451-.267.876-.647 1.276-1.14v-5.756c-.35-.425-.734-.726-1.151-.9a3.332 3.332 0 0 0-1.326-.263c-.467 0-.889.087-1.264.262a2.521 2.521 0 0 0-.964.801c-.267.35-.471.801-.613 1.352-.142.542-.213 1.184-.213 1.927 0 .75.059 1.389.176 1.915.125.517.3.942.525 1.276.225.325.501.563.826.713.325.142.688.213 1.089.213Zm14.526-10.775c.809 0 1.555.13 2.24.388a4.838 4.838 0 0 1 1.764 1.14c.492.491.876 1.1 1.151 1.826.284.718.426 1.54.426 2.465 0 .468-.05.785-.15.951-.101.159-.292.238-.576.238h-7.946c.05.66.166 1.23.35 1.715.183.475.425.871.726 1.188.3.31.655.543 1.063.701.418.15.876.226 1.377.226s.93-.059 1.289-.176c.367-.117.684-.246.951-.388.275-.142.513-.27.713-.388a1.24 1.24 0 0 1 .601-.175c.259 0 .45.096.576.288l.888 1.126c-.342.4-.726.739-1.151 1.014a6.864 6.864 0 0 1-1.339.65 7.34 7.34 0 0 1-1.414.339c-.476.066-.939.1-1.389.1a6.95 6.95 0 0 1-2.491-.438 5.687 5.687 0 0 1-2.002-1.314c-.567-.584-1.013-1.302-1.339-2.153-.325-.859-.488-1.852-.488-2.978 0-.876.142-1.698.426-2.465a5.912 5.912 0 0 1 1.213-2.015 5.787 5.787 0 0 1 1.94-1.364c.768-.334 1.631-.5 2.591-.5Zm.062 2.215c-.901 0-1.606.255-2.115.764-.509.509-.834 1.23-.976 2.165h5.832c0-.4-.059-.776-.176-1.127a2.601 2.601 0 0 0-.5-.938 2.283 2.283 0 0 0-.864-.626c-.342-.158-.742-.238-1.201-.238Zm11.375 8.047h7.233v2.778H126.65V8.572h3.366v15.317Zm12.352-10.061v12.839h-3.104v-12.84h3.104Zm.425-3.742c0 .267-.054.517-.162.75a2.028 2.028 0 0 1-.438.614 2.072 2.072 0 0 1-.626.425c-.242.1-.501.15-.776.15-.267 0-.521-.05-.763-.15a2.113 2.113 0 0 1-1.039-1.038 1.89 1.89 0 0 1-.15-.751c0-.275.05-.534.15-.776.109-.242.25-.45.426-.626a1.93 1.93 0 0 1 .613-.413 1.85 1.85 0 0 1 .763-.162c.275 0 .534.054.776.162.242.1.451.238.626.413.183.176.329.384.438.626.108.242.162.5.162.776Zm2.726 16.581v-12.84h1.89c.4 0 .663.188.788.564l.213 1.013a7.34 7.34 0 0 1 .813-.725c.292-.217.597-.405.914-.564a4.83 4.83 0 0 1 1.038-.363 5.432 5.432 0 0 1 1.202-.125c.701 0 1.322.121 1.864.363a3.54 3.54 0 0 1 1.352 1.001c.367.426.642.939.826 1.54.192.592.288 1.247.288 1.964v8.172h-3.091v-8.172c0-.784-.18-1.389-.538-1.814-.359-.434-.906-.65-1.64-.65-.534 0-1.034.12-1.501.362-.468.242-.91.572-1.327.989v9.285h-3.091Zm19.596-13.04a6.3 6.3 0 0 1 2.24.388 4.838 4.838 0 0 1 1.764 1.14c.493.491.876 1.1 1.152 1.826.283.718.425 1.54.425 2.465 0 .468-.05.785-.15.951-.1.159-.292.238-.576.238h-7.946c.05.66.167 1.23.35 1.715.184.475.426.871.726 1.188.3.31.655.543 1.064.701.417.15.876.226 1.376.226.501 0 .93-.059 1.289-.176.367-.117.684-.246.951-.388.276-.142.513-.27.714-.388.208-.116.408-.175.6-.175.259 0 .451.096.576.288l.888 1.126a5.28 5.28 0 0 1-1.151 1.014 6.837 6.837 0 0 1-1.339.65 7.34 7.34 0 0 1-1.414.339c-.475.066-.939.1-1.389.1a6.94 6.94 0 0 1-2.49-.438 5.691 5.691 0 0 1-2.003-1.314c-.567-.584-1.013-1.302-1.339-2.153-.325-.859-.488-1.852-.488-2.978 0-.876.142-1.698.426-2.465a5.914 5.914 0 0 1 1.214-2.015 5.783 5.783 0 0 1 1.939-1.364c.768-.334 1.631-.5 2.591-.5Zm.062 2.215c-.901 0-1.606.255-2.114.764-.509.509-.835 1.23-.977 2.165h5.832c0-.4-.058-.776-.175-1.127a2.619 2.619 0 0 0-.501-.938 2.287 2.287 0 0 0-.863-.626c-.342-.158-.743-.238-1.202-.238Z" fill="#000"/><path fill-rule="evenodd" clip-rule="evenodd" d="M16.587 7.564c.395 0 .715.32.715.715V48.36a.715.715 0 0 1-1.43 0V8.279c0-.395.32-.715.715-.715Z" fill="#AF996B"/><path fill-rule="evenodd" clip-rule="evenodd" d="M5.117 12.356a.715.715 0 0 1 1.011 0l21.93 21.93a.715.715 0 1 1-1.011 1.01l-21.93-21.93a.715.715 0 0 1 0-1.01Z" fill="#AF996B"/><path fill-rule="evenodd" clip-rule="evenodd" d="M28.093 12.32c.28.279.28.732 0 1.01l-7.092 7.093a.715.715 0 1 1-1.01-1.011l7.091-7.092a.715.715 0 0 1 1.011 0Zm-10.999 11c.28.278.28.731 0 1.01l-11 11a.715.715 0 0 1-1.01-1.011l11-11a.715.715 0 0 1 1.01 0Z" fill="#AF996B"/><path fill-rule="evenodd" clip-rule="evenodd" d="M.314 23.826c0-.395.32-.715.715-.715h31.092a.715.715 0 1 1 0 1.43H1.03a.715.715 0 0 1-.715-.715Zm23.462-14.29c.395 0 .715.32.715.715v6.385a.715.715 0 0 1-1.43 0V10.25c0-.395.32-.715.715-.715Z" fill="#AF996B"/><path fill-rule="evenodd" clip-rule="evenodd" d="M23.06 16.638c0-.395.32-.715.716-.715h6.384a.715.715 0 1 1 0 1.43h-6.384a.715.715 0 0 1-.715-.715ZM29.012.924c.394 0 .715.32.715.715v9.172a.715.715 0 0 1-1.43 0V1.639c0-.395.32-.715.715-.715Z" fill="#AF996B"/><path fill-rule="evenodd" clip-rule="evenodd" d="M23.99 2.009a.715.715 0 0 1 1.012 0l4.513 4.513a.715.715 0 1 1-1.011 1.01L23.99 3.02a.715.715 0 0 1 0-1.011Z" fill="#AF996B"/><path fill-rule="evenodd" clip-rule="evenodd" d="M34.03 2.011c.28.28.28.732 0 1.011l-4.513 4.513a.715.715 0 0 1-1.011-1.01l4.513-4.514a.715.715 0 0 1 1.011 0ZM29.945 12.32c0-.395.32-.715.715-.715h9.173a.715.715 0 1 1 0 1.43H30.66a.715.715 0 0 1-.715-.716Z" fill="#AF996B"/><path fill-rule="evenodd" clip-rule="evenodd" d="M39.464 7.296a.715.715 0 0 1 0 1.011l-4.513 4.516a.715.715 0 0 1-1.011-1.011l4.513-4.516a.715.715 0 0 1 1.01 0Z" fill="#AF996B"/><path fill-rule="evenodd" clip-rule="evenodd" d="M33.937 11.814a.715.715 0 0 1 1.011 0l4.513 4.513a.715.715 0 1 1-1.01 1.011l-4.514-4.513a.715.715 0 0 1 0-1.011ZM11.567 8.64a.715.715 0 0 1 1.01 0l4.514 4.513a.715.715 0 1 1-1.011 1.01l-4.513-4.512a.715.715 0 0 1 0-1.011Z" fill="#AF996B"/><path fill-rule="evenodd" clip-rule="evenodd" d="M21.608 8.642c.28.28.28.732 0 1.011l-4.515 4.513a.715.715 0 0 1-1.01-1.011l4.514-4.513a.715.715 0 0 1 1.011 0ZM2.3 16.638c0-.395.32-.715.715-.715h6.382a.715.715 0 0 1 0 1.43H3.015a.715.715 0 0 1-.715-.715Z" fill="#AF996B"/><path fill-rule="evenodd" clip-rule="evenodd" d="M9.401 9.54c.395 0 .715.32.715.715v6.383a.715.715 0 0 1-1.43 0v-6.383c0-.394.32-.715.715-.715ZM6.927 23.323c.28.279.28.732 0 1.01l-4.515 4.514a.715.715 0 0 1-1.01-1.012l4.514-4.513a.715.715 0 0 1 1.011 0Z" fill="#AF996B"/><path fill-rule="evenodd" clip-rule="evenodd" d="M1.403 18.807a.715.715 0 0 1 1.011 0L6.93 23.32a.715.715 0 1 1-1.01 1.011L1.403 19.82a.715.715 0 0 1 0-1.012Zm7.998 11.494c.395 0 .715.32.715.715v6.385a.715.715 0 1 1-1.43 0v-6.385c0-.394.32-.715.715-.715Z" fill="#AF996B"/><path fill-rule="evenodd" clip-rule="evenodd" d="M2.302 31.014c0-.395.32-.715.715-.715H9.4a.715.715 0 0 1 0 1.43H3.017a.715.715 0 0 1-.715-.715Zm13.782 2.474a.715.715 0 0 1 1.011 0l4.516 4.513a.715.715 0 0 1-1.011 1.011L16.084 34.5a.715.715 0 0 1 0-1.01Z" fill="#AF996B"/><path fill-rule="evenodd" clip-rule="evenodd" d="M17.093 33.486c.28.28.28.732 0 1.011L12.58 39.01a.715.715 0 0 1-1.011-1.011l4.513-4.513a.715.715 0 0 1 1.011 0Zm5.972-2.472c0-.395.32-.715.715-.715h6.382a.715.715 0 0 1 0 1.43H23.78a.715.715 0 0 1-.715-.715Z" fill="#AF996B"/><path fill-rule="evenodd" clip-rule="evenodd" d="M23.776 30.3c.395 0 .715.32.715.714v6.382a.715.715 0 1 1-1.43 0v-6.382c0-.395.32-.715.715-.715Zm7.998-11.495a.715.715 0 0 1 0 1.011L27.26 24.33a.715.715 0 1 1-1.011-1.01l4.513-4.514a.715.715 0 0 1 1.01 0Z" fill="#AF996B"/><path fill-rule="evenodd" clip-rule="evenodd" d="M26.247 23.32a.715.715 0 0 1 1.011 0l4.515 4.513a.715.715 0 1 1-1.01 1.012l-4.516-4.514a.715.715 0 0 1 0-1.01Zm-9.314-10.287c.345.192.47.628.277.973l-3.633 6.53a.715.715 0 0 1-1.25-.696l3.634-6.53a.715.715 0 0 1 .972-.277Z" fill="#AF996B"/><path fill-rule="evenodd" clip-rule="evenodd" d="M17.246 13.384a.715.715 0 0 1-.387.934l-7.188 2.98a.715.715 0 1 1-.547-1.32l7.188-2.98a.715.715 0 0 1 .934.386Zm-3.683 6.47a.715.715 0 0 1-.277.972l-6.53 3.636a.715.715 0 1 1-.695-1.25l6.53-3.635a.715.715 0 0 1 .972.277Z" fill="#AF996B"/><path fill-rule="evenodd" clip-rule="evenodd" d="M9.662 15.988c.364.152.538.57.386.935l-2.98 7.188a.715.715 0 0 1-1.32-.548l2.98-7.188a.715.715 0 0 1 .934-.387Z" fill="#AF996B"/><path fill-rule="evenodd" clip-rule="evenodd" d="M5.784 23.467a.715.715 0 0 1 .972-.277l6.53 3.636a.715.715 0 1 1-.695 1.249l-6.53-3.636a.715.715 0 0 1-.277-.972Z" fill="#AF996B"/><path fill-rule="evenodd" clip-rule="evenodd" d="M6.135 23.154a.715.715 0 0 1 .934.387l2.98 7.188a.715.715 0 0 1-1.321.547l-2.98-7.188a.715.715 0 0 1 .387-.934Zm6.469 3.685a.715.715 0 0 1 .973.277l3.633 6.53a.715.715 0 1 1-1.25.695l-3.633-6.53a.715.715 0 0 1 .277-.972Z" fill="#AF996B"/><path fill-rule="evenodd" clip-rule="evenodd" d="M8.737 30.74a.715.715 0 0 1 .934-.386l7.188 2.98a.715.715 0 0 1-.547 1.32l-7.188-2.98a.715.715 0 0 1-.387-.934Z" fill="#AF996B"/><path fill-rule="evenodd" clip-rule="evenodd" d="M20.546 26.839a.715.715 0 0 1 .277.972l-3.636 6.53a.715.715 0 1 1-1.249-.695l3.636-6.53a.715.715 0 0 1 .972-.277Z" fill="#AF996B"/><path fill-rule="evenodd" clip-rule="evenodd" d="M24.414 30.74a.715.715 0 0 1-.387.934l-7.19 2.98a.715.715 0 0 1-.548-1.32l7.19-2.98a.715.715 0 0 1 .935.386Zm2.952-7.273a.715.715 0 0 1-.277.972l-6.53 3.636a.715.715 0 0 1-.695-1.25l6.53-3.635a.715.715 0 0 1 .972.277Z" fill="#AF996B"/><path fill-rule="evenodd" clip-rule="evenodd" d="M27.015 23.154c.365.151.538.57.387.934l-2.98 7.188a.715.715 0 1 1-1.32-.547l2.98-7.188a.715.715 0 0 1 .933-.387Z" fill="#AF996B"/></svg>