<svg width="171" height="50" viewBox="0 0 171 50" fill="none" xmlns="http://www.w3.org/2000/svg">
<path d="M53.8386 39.1809V33.9506H55.5066C55.8278 33.9506 56.104 33.9822 56.3352 34.0455C56.5688 34.1087 56.7598 34.1988 56.9082 34.3156C57.0591 34.4324 57.1698 34.5759 57.2403 34.7463C57.3109 34.9142 57.3462 35.104 57.3462 35.3156C57.3462 35.4446 57.3255 35.5687 57.2841 35.6879C57.2452 35.8072 57.1856 35.9179 57.1053 36.0201C57.025 36.1223 56.9228 36.2135 56.7987 36.2938C56.677 36.3741 56.5335 36.4398 56.368 36.4909C56.75 36.5663 57.0384 36.7038 57.233 36.9034C57.4277 37.1029 57.525 37.3657 57.525 37.6917C57.525 37.9132 57.4837 38.1151 57.4009 38.2976C57.3206 38.4801 57.2014 38.6371 57.0432 38.7685C56.8875 38.8999 56.6953 39.0021 56.4666 39.0751C56.2378 39.1456 55.9775 39.1809 55.6855 39.1809H53.8386ZM54.5431 36.7975V38.6188H55.6745C55.8765 38.6188 56.0505 38.5957 56.1965 38.5495C56.3425 38.5032 56.4617 38.4387 56.5542 38.356C56.6491 38.2709 56.7184 38.1711 56.7622 38.0567C56.806 37.9399 56.8279 37.8122 56.8279 37.6735C56.8279 37.4034 56.7318 37.1905 56.5396 37.0348C56.3473 36.8766 56.059 36.7975 55.6745 36.7975H54.5431ZM54.5431 36.2938H55.4774C55.677 36.2938 55.8497 36.2719 55.9957 36.2281C56.1441 36.1843 56.2658 36.1235 56.3607 36.0456C56.458 35.9678 56.5298 35.8741 56.5761 35.7646C56.6223 35.6527 56.6454 35.531 56.6454 35.3996C56.6454 35.0906 56.5529 34.8655 56.368 34.7244C56.1831 34.5808 55.896 34.509 55.5066 34.509H54.5431V36.2938Z" fill="black"/>
<path d="M60.5762 38.6188C60.7928 38.6188 60.9862 38.5823 61.1566 38.5093C61.3269 38.4363 61.4705 38.3341 61.5873 38.2027C61.7065 38.0713 61.7965 37.9144 61.8574 37.7319C61.9206 37.5494 61.9523 37.3486 61.9523 37.1296V33.9506H62.6567V37.1296C62.6567 37.4314 62.608 37.7112 62.5107 37.9691C62.4158 38.2271 62.2783 38.4509 62.0982 38.6407C61.9206 38.8281 61.7028 38.9753 61.4449 39.0824C61.187 39.1894 60.8974 39.2429 60.5762 39.2429C60.255 39.2429 59.9655 39.1894 59.7076 39.0824C59.4496 38.9753 59.2306 38.8281 59.0506 38.6407C58.8705 38.4509 58.7318 38.2271 58.6345 37.9691C58.5396 37.7112 58.4921 37.4314 58.4921 37.1296V33.9506H59.1966V37.126C59.1966 37.345 59.227 37.5457 59.2878 37.7282C59.3511 37.9107 59.4411 38.0677 59.5579 38.1991C59.6771 38.3305 59.8219 38.4339 59.9923 38.5093C60.165 38.5823 60.3597 38.6188 60.5762 38.6188Z" fill="black"/>
<path d="M65.8894 37.0968V39.1809H65.1813V37.0968L63.2651 33.9506H63.8856C63.9489 33.9506 63.9988 33.9664 64.0353 33.998C64.0718 34.0272 64.1034 34.0662 64.1302 34.1148L65.3273 36.1478C65.3711 36.233 65.4101 36.3133 65.4441 36.3887C65.4806 36.4617 65.5123 36.5347 65.539 36.6077C65.5658 36.5347 65.5962 36.4617 65.6303 36.3887C65.6643 36.3133 65.7033 36.233 65.7471 36.1478L66.9406 34.1148C66.9625 34.0735 66.9929 34.0357 67.0318 34.0017C67.0708 33.9676 67.1207 33.9506 67.1815 33.9506H67.8056L65.8894 37.0968Z" fill="black"/>
<path d="M67.6119 38.732C67.6119 38.6176 67.6509 38.5203 67.7287 38.44C67.809 38.3597 67.9149 38.3195 68.0463 38.3195C68.1193 38.3195 68.1838 38.3329 68.2397 38.3597C68.2957 38.3864 68.3419 38.4242 68.3784 38.4728C68.4174 38.519 68.4466 38.5738 68.466 38.6371C68.4855 38.6979 68.4952 38.7648 68.4952 38.8378C68.4952 38.9473 68.4794 39.0617 68.4478 39.1809C68.4186 39.2977 68.3736 39.4133 68.3127 39.5276C68.2543 39.6444 68.1825 39.7576 68.0974 39.8671C68.0122 39.9766 67.9149 40.0776 67.8054 40.17L67.6959 40.0642C67.6764 40.0471 67.663 40.0313 67.6557 40.0167C67.6484 40.0021 67.6448 39.9839 67.6448 39.962C67.6448 39.9449 67.6497 39.9279 67.6594 39.9109C67.6716 39.8938 67.6849 39.878 67.6995 39.8634C67.7239 39.8367 67.7543 39.8002 67.7908 39.7539C67.8297 39.7101 67.8687 39.659 67.9076 39.6006C67.9465 39.5422 67.9818 39.4778 68.0134 39.4072C68.0475 39.3366 68.0718 39.2612 68.0864 39.1809H68.039C67.9125 39.1809 67.809 39.1395 67.7287 39.0568C67.6509 38.9716 67.6119 38.8634 67.6119 38.732Z" fill="black"/>
<path d="M73.4293 38.6188C73.6459 38.6188 73.8393 38.5823 74.0097 38.5093C74.18 38.4363 74.3236 38.3341 74.4404 38.2027C74.5596 38.0713 74.6496 37.9144 74.7104 37.7319C74.7737 37.5494 74.8053 37.3486 74.8053 37.1296V33.9506H75.5098V37.1296C75.5098 37.4314 75.4611 37.7112 75.3638 37.9691C75.2689 38.2271 75.1314 38.4509 74.9513 38.6407C74.7737 38.8281 74.5559 38.9753 74.298 39.0824C74.0401 39.1894 73.7505 39.2429 73.4293 39.2429C73.1081 39.2429 72.8186 39.1894 72.5607 39.0824C72.3027 38.9753 72.0837 38.8281 71.9037 38.6407C71.7236 38.4509 71.5849 38.2271 71.4876 37.9691C71.3927 37.7112 71.3452 37.4314 71.3452 37.1296V33.9506H72.0497V37.126C72.0497 37.345 72.0801 37.5457 72.1409 37.7282C72.2042 37.9107 72.2942 38.0677 72.411 38.1991C72.5302 38.3305 72.675 38.4339 72.8453 38.5093C73.0181 38.5823 73.2128 38.6188 73.4293 38.6188Z" fill="black"/>
<path d="M79.4542 34.7682C79.4323 34.8047 79.408 34.8326 79.3812 34.8521C79.3569 34.8691 79.3265 34.8777 79.29 34.8777C79.2486 34.8777 79.2 34.857 79.144 34.8156C79.088 34.7742 79.0175 34.7292 78.9323 34.6806C78.8496 34.6295 78.7486 34.5832 78.6294 34.5419C78.5126 34.5005 78.3702 34.4798 78.2023 34.4798C78.0442 34.4798 77.9042 34.5017 77.7826 34.5455C77.6634 34.5869 77.5624 34.6441 77.4796 34.7171C77.3993 34.7901 77.3385 34.8764 77.2971 34.9762C77.2558 35.0735 77.2351 35.1794 77.2351 35.2937C77.2351 35.4397 77.2704 35.5614 77.3409 35.6587C77.4139 35.7536 77.5088 35.8351 77.6256 35.9033C77.7449 35.9714 77.8787 36.031 78.0271 36.0821C78.178 36.1308 78.3313 36.1819 78.487 36.2354C78.6452 36.289 78.7985 36.3498 78.9469 36.4179C79.0978 36.4836 79.2316 36.5676 79.3484 36.6698C79.4676 36.772 79.5625 36.8973 79.6331 37.0457C79.7061 37.1941 79.7426 37.3766 79.7426 37.5932C79.7426 37.8219 79.7037 38.0373 79.6258 38.2392C79.5479 38.4387 79.4336 38.6127 79.2827 38.7612C79.1343 38.9096 78.9506 39.0264 78.7316 39.1115C78.515 39.1967 78.268 39.2393 77.9906 39.2393C77.65 39.2393 77.3409 39.1785 77.0636 39.0568C76.7862 38.9327 76.5489 38.766 76.3518 38.5568L76.5562 38.221C76.5757 38.1942 76.5988 38.1723 76.6256 38.1553C76.6548 38.1358 76.6864 38.1261 76.7205 38.1261C76.7521 38.1261 76.7874 38.1395 76.8263 38.1662C76.8677 38.1906 76.9139 38.2222 76.965 38.2611C77.0161 38.3001 77.0745 38.3426 77.1402 38.3889C77.2059 38.4351 77.2801 38.4777 77.3628 38.5166C77.448 38.5555 77.5441 38.5884 77.6512 38.6152C77.7582 38.6395 77.8787 38.6517 78.0125 38.6517C78.1804 38.6517 78.3301 38.6285 78.4615 38.5823C78.5929 38.5361 78.7036 38.4716 78.7936 38.3889C78.8861 38.3037 78.9566 38.2027 79.0053 38.0859C79.054 37.9691 79.0783 37.8389 79.0783 37.6954C79.0783 37.5372 79.0418 37.4083 78.9688 37.3085C78.8982 37.2063 78.8046 37.1211 78.6878 37.053C78.571 36.9849 78.4371 36.9277 78.2863 36.8815C78.1354 36.8328 77.9821 36.7841 77.8264 36.7355C77.6707 36.6844 77.5174 36.626 77.3665 36.5603C77.2156 36.4946 77.0818 36.4094 76.965 36.3048C76.8482 36.2001 76.7533 36.07 76.6803 35.9142C76.6097 35.7561 76.5745 35.5614 76.5745 35.3302C76.5745 35.1453 76.6097 34.9665 76.6803 34.7937C76.7533 34.6209 76.8579 34.4677 76.9942 34.3338C77.1329 34.2 77.302 34.0929 77.5015 34.0126C77.7035 33.9323 77.9347 33.8922 78.195 33.8922C78.487 33.8922 78.7522 33.9384 78.9907 34.0309C79.2316 34.1233 79.4433 34.2572 79.6258 34.4324L79.4542 34.7682Z" fill="black"/>
<path d="M83.9653 33.9506V34.5273H81.4505V36.2646H83.4872V36.8194H81.4505V38.6042H83.9689L83.9653 39.1809H80.7424V33.9506H83.9653Z" fill="black"/>
<path d="M84.6781 38.732C84.6781 38.6176 84.717 38.5203 84.7949 38.44C84.8752 38.3597 84.9811 38.3195 85.1125 38.3195C85.1855 38.3195 85.2499 38.3329 85.3059 38.3597C85.3619 38.3864 85.4081 38.4242 85.4446 38.4728C85.4835 38.519 85.5127 38.5738 85.5322 38.6371C85.5517 38.6979 85.5614 38.7648 85.5614 38.8378C85.5614 38.9473 85.5456 39.0617 85.5139 39.1809C85.4847 39.2977 85.4397 39.4133 85.3789 39.5276C85.3205 39.6444 85.2487 39.7576 85.1636 39.8671C85.0784 39.9766 84.9811 40.0776 84.8716 40.17L84.7621 40.0642C84.7426 40.0471 84.7292 40.0313 84.7219 40.0167C84.7146 40.0021 84.711 39.9839 84.711 39.962C84.711 39.9449 84.7158 39.9279 84.7256 39.9109C84.7377 39.8938 84.7511 39.878 84.7657 39.8634C84.79 39.8367 84.8205 39.8002 84.857 39.7539C84.8959 39.7101 84.9348 39.659 84.9738 39.6006C85.0127 39.5422 85.048 39.4778 85.0796 39.4072C85.1137 39.3366 85.138 39.2612 85.1526 39.1809H85.1052C84.9786 39.1809 84.8752 39.1395 84.7949 39.0568C84.717 38.9716 84.6781 38.8634 84.6781 38.732Z" fill="black"/>
<path d="M91.7 33.9506V34.5273H89.1852V36.2646H91.2218V36.8194H89.1852V38.6042H91.7036L91.7 39.1809H88.4771V33.9506H91.7Z" fill="black"/>
<path d="M93.0552 33.9506C93.0868 33.9506 93.1136 33.953 93.1355 33.9579C93.1574 33.9603 93.1768 33.9664 93.1939 33.9761C93.2109 33.9834 93.2279 33.9956 93.245 34.0126C93.262 34.0272 93.2802 34.0467 93.2997 34.071L96.3255 38.0093C96.3206 37.946 96.3157 37.8852 96.3109 37.8268C96.3084 37.766 96.3072 37.7088 96.3072 37.6552V33.9506H96.9277V39.1809H96.5737C96.5177 39.1809 96.4703 39.1712 96.4313 39.1517C96.3948 39.1322 96.3583 39.0994 96.3218 39.0532L93.2961 35.1149C93.3009 35.1757 93.3046 35.2353 93.307 35.2937C93.3094 35.3521 93.3107 35.4057 93.3107 35.4543V39.1809H92.6902V33.9506H93.0552Z" fill="black"/>
<path d="M100.068 37.3742C100.068 37.6662 100.031 37.9278 99.9584 38.1589C99.8878 38.3901 99.782 38.586 99.6409 38.7466C99.5022 38.9047 99.3306 39.0264 99.1262 39.1115C98.9218 39.1967 98.687 39.2393 98.4218 39.2393C98.1809 39.2393 97.9351 39.2052 97.6845 39.1371L97.721 38.721C97.7259 38.6796 97.7405 38.6468 97.7648 38.6225C97.7916 38.5957 97.8317 38.5823 97.8852 38.5823C97.929 38.5823 97.9862 38.5933 98.0568 38.6152C98.1298 38.6371 98.2271 38.648 98.3488 38.648C98.5094 38.648 98.6529 38.6237 98.7795 38.575C98.906 38.5263 99.0119 38.4509 99.097 38.3487C99.1822 38.2465 99.2467 38.1163 99.2905 37.9582C99.3367 37.7976 99.3598 37.6078 99.3598 37.3888V33.9506H100.068V37.3742Z" fill="black"/>
<path d="M106.184 36.5676C106.184 36.9593 106.122 37.3194 105.998 37.6479C105.874 37.974 105.699 38.255 105.472 38.4911C105.246 38.7271 104.973 38.9108 104.655 39.0422C104.338 39.1712 103.988 39.2356 103.604 39.2356C103.219 39.2356 102.869 39.1712 102.552 39.0422C102.236 38.9108 101.965 38.7271 101.738 38.4911C101.512 38.255 101.337 37.974 101.213 37.6479C101.089 37.3194 101.027 36.9593 101.027 36.5676C101.027 36.1758 101.089 35.8169 101.213 35.4908C101.337 35.1623 101.512 34.8801 101.738 34.6441C101.965 34.4056 102.236 34.2207 102.552 34.0893C102.869 33.9579 103.219 33.8922 103.604 33.8922C103.988 33.8922 104.338 33.9579 104.655 34.0893C104.973 34.2207 105.246 34.4056 105.472 34.6441C105.699 34.8801 105.874 35.1623 105.998 35.4908C106.122 35.8169 106.184 36.1758 106.184 36.5676ZM105.458 36.5676C105.458 36.2464 105.414 35.958 105.326 35.7025C105.239 35.447 105.115 35.2317 104.954 35.0565C104.793 34.8789 104.599 34.7426 104.37 34.6477C104.141 34.5528 103.886 34.5054 103.604 34.5054C103.324 34.5054 103.069 34.5528 102.841 34.6477C102.612 34.7426 102.416 34.8789 102.253 35.0565C102.093 35.2317 101.968 35.447 101.881 35.7025C101.793 35.958 101.749 36.2464 101.749 36.5676C101.749 36.8888 101.793 37.1771 101.881 37.4326C101.968 37.6857 102.093 37.901 102.253 38.0786C102.416 38.2538 102.612 38.3889 102.841 38.4838C103.069 38.5762 103.324 38.6225 103.604 38.6225C103.886 38.6225 104.141 38.5762 104.37 38.4838C104.599 38.3889 104.793 38.2538 104.954 38.0786C105.115 37.901 105.239 37.6857 105.326 37.4326C105.414 37.1771 105.458 36.8888 105.458 36.5676Z" fill="black"/>
<path d="M108.883 37.0968V39.1809H108.175V37.0968L106.258 33.9506H106.879C106.942 33.9506 106.992 33.9664 107.029 33.998C107.065 34.0272 107.097 34.0662 107.124 34.1148L108.321 36.1478C108.364 36.233 108.403 36.3133 108.437 36.3887C108.474 36.4617 108.506 36.5347 108.532 36.6077C108.559 36.5347 108.59 36.4617 108.624 36.3887C108.658 36.3133 108.697 36.233 108.74 36.1478L109.934 34.1148C109.956 34.0735 109.986 34.0357 110.025 34.0017C110.064 33.9676 110.114 33.9506 110.175 33.9506H110.799L108.883 37.0968Z" fill="black"/>
<path d="M69.9068 17.6194C69.9068 18.9458 69.6857 20.1639 69.2436 21.2734C68.8014 22.383 68.1799 23.3382 67.379 24.1391C66.5781 24.94 65.6145 25.5616 64.4883 26.0037C63.362 26.4459 62.1106 26.667 60.7341 26.667H53.8389V8.57176H60.7341C62.1106 8.57176 63.362 8.79701 64.4883 9.24751C65.6145 9.68967 66.5781 10.3112 67.379 11.1121C68.1799 11.9046 68.8014 12.8557 69.2436 13.9653C69.6857 15.0748 69.9068 16.2929 69.9068 17.6194ZM66.4529 17.6194C66.4529 16.6266 66.3195 15.7381 66.0525 14.9539C65.7939 14.1613 65.4143 13.4939 64.9137 12.9516C64.4215 12.401 63.8208 11.9797 63.1117 11.6877C62.4109 11.3957 61.6184 11.2497 60.7341 11.2497H57.2176V23.989H60.7341C61.6184 23.989 62.4109 23.843 63.1117 23.551C63.8208 23.259 64.4215 22.8419 64.9137 22.2996C65.4143 21.749 65.7939 21.0816 66.0525 20.2973C66.3195 19.5048 66.4529 18.6121 66.4529 17.6194Z" fill="black"/>
<path d="M80.4698 26.667C80.1778 26.667 79.9525 26.6252 79.794 26.5418C79.6355 26.45 79.5104 26.2707 79.4186 26.0037L79.1433 25.0902C78.8179 25.3822 78.5009 25.6408 78.1922 25.8661C77.8835 26.083 77.5624 26.2665 77.2286 26.4167C76.8949 26.5668 76.5362 26.6795 76.1524 26.7546C75.777 26.8296 75.3599 26.8672 74.901 26.8672C74.3588 26.8672 73.8582 26.7963 73.3994 26.6544C72.9405 26.5043 72.5443 26.2832 72.2105 25.9912C71.8768 25.6992 71.6182 25.3363 71.4347 24.9025C71.2511 24.4687 71.1594 23.9639 71.1594 23.3883C71.1594 22.9044 71.2845 22.4289 71.5348 21.9617C71.7934 21.4862 72.2189 21.0607 72.8112 20.6853C73.4035 20.3015 74.1919 19.9845 75.1764 19.7342C76.1608 19.4839 77.3872 19.3421 78.8555 19.3087V18.5579C78.8555 17.6986 78.6719 17.0646 78.3048 16.6558C77.9378 16.2386 77.408 16.0301 76.7156 16.0301C76.215 16.0301 75.7979 16.0885 75.4642 16.2053C75.1388 16.3221 74.851 16.4556 74.6007 16.6057C74.3504 16.7475 74.121 16.8769 73.9124 16.9937C73.7122 17.1105 73.487 17.1689 73.2367 17.1689C73.0198 17.1689 72.8362 17.1146 72.6861 17.0062C72.5359 16.8894 72.4149 16.7559 72.3232 16.6057L71.7726 15.6171C73.2492 14.2656 75.0262 13.5899 77.1035 13.5899C77.8543 13.5899 78.5259 13.715 79.1183 13.9653C79.7106 14.2072 80.2111 14.5493 80.6199 14.9914C81.0287 15.4252 81.3374 15.9467 81.546 16.5557C81.7629 17.1647 81.8713 17.8321 81.8713 18.5579V26.667H80.4698ZM75.8521 24.7398C76.4862 24.7398 77.0326 24.6272 77.4914 24.4019C77.9586 24.1683 78.4133 23.8179 78.8555 23.3508V21.1858C77.9545 21.2275 77.1994 21.3068 76.5904 21.4236C75.9898 21.5321 75.5059 21.6739 75.1388 21.8491C74.7717 22.0243 74.5089 22.2287 74.3504 22.4623C74.1919 22.6959 74.1127 22.9503 74.1127 23.2256C74.1127 23.7679 74.2712 24.1558 74.5882 24.3894C74.9136 24.623 75.3349 24.7398 75.8521 24.7398Z" fill="black"/>
<path d="M84.7824 26.667V13.8276H86.672C87.0724 13.8276 87.3352 14.0153 87.4604 14.3908L87.6731 15.4044C87.9317 15.1374 88.2029 14.8955 88.4865 14.6786C88.7785 14.4617 89.083 14.274 89.4 14.1154C89.7254 13.9569 90.0716 13.836 90.4387 13.7525C90.8058 13.6691 91.2062 13.6274 91.64 13.6274C92.3408 13.6274 92.9624 13.7484 93.5046 13.9903C94.0469 14.2239 94.4974 14.5576 94.8561 14.9914C95.2232 15.4169 95.4985 15.93 95.6821 16.5306C95.8739 17.123 95.9699 17.7779 95.9699 18.4953V26.667H92.8789V18.4953C92.8789 17.7111 92.6996 17.1063 92.3408 16.6808C91.9821 16.247 91.4356 16.0301 90.7015 16.0301C90.1676 16.0301 89.667 16.1511 89.1998 16.393C88.7326 16.6349 88.2905 16.9645 87.8733 17.3816V26.667H84.7824Z" fill="black"/>
<path d="M108.17 26.667C107.761 26.667 107.502 26.4792 107.394 26.1038L107.131 24.8649C106.864 25.1653 106.585 25.4364 106.293 25.6784C106.001 25.9203 105.684 26.1289 105.342 26.3041C105.008 26.4792 104.645 26.6127 104.253 26.7045C103.869 26.8046 103.452 26.8547 103.002 26.8547C102.301 26.8547 101.658 26.7087 101.074 26.4167C100.49 26.1247 99.9857 25.7034 99.5602 25.1528C99.1431 24.5938 98.8177 23.9055 98.5841 23.088C98.3589 22.2704 98.2462 21.336 98.2462 20.2848C98.2462 19.3338 98.3756 18.4494 98.6342 17.6319C98.8928 16.8143 99.264 16.1052 99.7479 15.5045C100.232 14.9038 100.812 14.4366 101.487 14.1029C102.163 13.7609 102.922 13.5899 103.765 13.5899C104.482 13.5899 105.096 13.7067 105.604 13.9402C106.113 14.1655 106.568 14.47 106.968 14.8538V8.0712H110.059V26.667H108.17ZM104.053 24.4019C104.695 24.4019 105.242 24.2684 105.692 24.0015C106.143 23.7345 106.568 23.3549 106.968 22.8627V17.1063C106.618 16.6808 106.234 16.3805 105.817 16.2053C105.408 16.0301 104.966 15.9425 104.491 15.9425C104.024 15.9425 103.602 16.0301 103.227 16.2053C102.851 16.3805 102.53 16.6474 102.263 17.0062C101.996 17.3566 101.792 17.8071 101.65 18.3577C101.508 18.9 101.437 19.5423 101.437 20.2848C101.437 21.0357 101.496 21.6739 101.613 22.1995C101.738 22.7167 101.913 23.1422 102.138 23.4759C102.363 23.8013 102.639 24.039 102.964 24.1892C103.289 24.331 103.652 24.4019 104.053 24.4019Z" fill="black"/>
<path d="M118.579 13.6274C119.388 13.6274 120.134 13.7567 120.819 14.0153C121.503 14.274 122.091 14.6535 122.583 15.1541C123.075 15.6463 123.459 16.2553 123.734 16.9811C124.018 17.6986 124.16 18.5204 124.16 19.4464C124.16 19.9136 124.11 20.2306 124.01 20.3975C123.909 20.556 123.718 20.6352 123.434 20.6352H115.488C115.538 21.2943 115.654 21.8658 115.838 22.3496C116.021 22.8252 116.263 23.2214 116.564 23.5385C116.864 23.8471 117.219 24.0807 117.627 24.2392C118.045 24.3894 118.503 24.4645 119.004 24.4645C119.505 24.4645 119.934 24.4061 120.293 24.2893C120.66 24.1725 120.977 24.0432 121.244 23.9014C121.519 23.7595 121.757 23.6302 121.957 23.5134C122.166 23.3966 122.366 23.3382 122.558 23.3382C122.817 23.3382 123.008 23.4342 123.134 23.6261L124.022 24.7523C123.68 25.1528 123.296 25.4906 122.871 25.7659C122.445 26.0329 121.999 26.2498 121.532 26.4167C121.073 26.5752 120.602 26.6878 120.118 26.7546C119.642 26.8213 119.179 26.8547 118.729 26.8547C117.836 26.8547 117.006 26.7087 116.238 26.4167C115.471 26.1163 114.803 25.6784 114.236 25.1027C113.669 24.5187 113.223 23.8013 112.897 22.9503C112.572 22.091 112.409 21.0982 112.409 19.972C112.409 19.096 112.551 18.2743 112.835 17.5067C113.118 16.7309 113.523 16.0593 114.048 15.492C114.582 14.9163 115.229 14.4617 115.988 14.128C116.756 13.7943 117.619 13.6274 118.579 13.6274ZM118.641 15.8424C117.74 15.8424 117.035 16.0968 116.526 16.6057C116.017 17.1146 115.692 17.8363 115.55 18.7706H121.382C121.382 18.3702 121.323 17.9948 121.206 17.6444C121.098 17.2856 120.931 16.9728 120.706 16.7058C120.481 16.4389 120.193 16.2303 119.842 16.0801C119.5 15.9216 119.1 15.8424 118.641 15.8424Z" fill="black"/>
<path d="M130.016 23.8889H137.249V26.667H126.65V8.57176H130.016V23.8889Z" fill="black"/>
<path d="M142.368 13.8276V26.667H139.264V13.8276H142.368ZM142.793 10.0859C142.793 10.3529 142.739 10.6032 142.631 10.8368C142.522 11.0704 142.376 11.2748 142.193 11.45C142.018 11.6252 141.809 11.767 141.567 11.8754C141.325 11.9756 141.066 12.0256 140.791 12.0256C140.524 12.0256 140.27 11.9756 140.028 11.8754C139.794 11.767 139.59 11.6252 139.415 11.45C139.239 11.2748 139.098 11.0704 138.989 10.8368C138.889 10.6032 138.839 10.3529 138.839 10.0859C138.839 9.81064 138.889 9.55202 138.989 9.31008C139.098 9.06814 139.239 8.85958 139.415 8.68438C139.59 8.50919 139.794 8.37153 140.028 8.27142C140.27 8.16297 140.524 8.10874 140.791 8.10874C141.066 8.10874 141.325 8.16297 141.567 8.27142C141.809 8.37153 142.018 8.50919 142.193 8.68438C142.376 8.85958 142.522 9.06814 142.631 9.31008C142.739 9.55202 142.793 9.81064 142.793 10.0859Z" fill="black"/>
<path d="M145.519 26.667V13.8276H147.409C147.809 13.8276 148.072 14.0153 148.197 14.3908L148.41 15.4044C148.668 15.1374 148.94 14.8955 149.223 14.6786C149.515 14.4617 149.82 14.274 150.137 14.1154C150.462 13.9569 150.808 13.836 151.175 13.7525C151.543 13.6691 151.943 13.6274 152.377 13.6274C153.078 13.6274 153.699 13.7484 154.241 13.9903C154.784 14.2239 155.234 14.5576 155.593 14.9914C155.96 15.4169 156.235 15.93 156.419 16.5306C156.611 17.123 156.707 17.7779 156.707 18.4953V26.667H153.616V18.4953C153.616 17.7111 153.436 17.1063 153.078 16.6808C152.719 16.247 152.172 16.0301 151.438 16.0301C150.904 16.0301 150.404 16.1511 149.937 16.393C149.469 16.6349 149.027 16.9645 148.61 17.3816V26.667H145.519Z" fill="black"/>
<path d="M165.115 13.6274C165.924 13.6274 166.671 13.7567 167.355 14.0153C168.039 14.274 168.627 14.6535 169.119 15.1541C169.612 15.6463 169.995 16.2553 170.271 16.9811C170.554 17.6986 170.696 18.5204 170.696 19.4464C170.696 19.9136 170.646 20.2306 170.546 20.3975C170.446 20.556 170.254 20.6352 169.97 20.6352H162.024C162.074 21.2943 162.191 21.8658 162.374 22.3496C162.558 22.8252 162.8 23.2214 163.1 23.5385C163.4 23.8471 163.755 24.0807 164.164 24.2392C164.581 24.3894 165.04 24.4645 165.54 24.4645C166.041 24.4645 166.47 24.4061 166.829 24.2893C167.196 24.1725 167.513 24.0432 167.78 23.9014C168.056 23.7595 168.293 23.6302 168.494 23.5134C168.702 23.3966 168.902 23.3382 169.094 23.3382C169.353 23.3382 169.545 23.4342 169.67 23.6261L170.558 24.7523C170.216 25.1528 169.833 25.4906 169.407 25.7659C168.982 26.0329 168.535 26.2498 168.068 26.4167C167.609 26.5752 167.138 26.6878 166.654 26.7546C166.179 26.8213 165.715 26.8547 165.265 26.8547C164.372 26.8547 163.542 26.7087 162.775 26.4167C162.007 26.1163 161.34 25.6784 160.772 25.1027C160.205 24.5187 159.759 23.8013 159.433 22.9503C159.108 22.091 158.945 21.0982 158.945 19.972C158.945 19.096 159.087 18.2743 159.371 17.5067C159.655 16.7309 160.059 16.0593 160.585 15.492C161.119 14.9163 161.765 14.4617 162.524 14.128C163.292 13.7943 164.155 13.6274 165.115 13.6274ZM165.177 15.8424C164.276 15.8424 163.571 16.0968 163.063 16.6057C162.554 17.1146 162.228 17.8363 162.086 18.7706H167.918C167.918 18.3702 167.86 17.9948 167.743 17.6444C167.634 17.2856 167.467 16.9728 167.242 16.7058C167.017 16.4389 166.729 16.2303 166.379 16.0801C166.037 15.9216 165.636 15.8424 165.177 15.8424Z" fill="black"/>
<path fill-rule="evenodd" clip-rule="evenodd" d="M16.5875 7.56378C16.9823 7.56378 17.3024 7.88386 17.3024 8.2787V48.361C17.3024 48.7558 16.9823 49.0759 16.5875 49.0759C16.1926 49.0759 15.8726 48.7558 15.8726 48.361V8.2787C15.8726 7.88386 16.1926 7.56378 16.5875 7.56378Z" fill="#AF996B"/>
<path fill-rule="evenodd" clip-rule="evenodd" d="M5.11711 12.3556C5.3963 12.0764 5.84896 12.0764 6.12815 12.3556L28.0576 34.2851C28.3368 34.5642 28.3368 35.0169 28.0576 35.2961C27.7784 35.5753 27.3257 35.5753 27.0465 35.2961L5.11711 13.3667C4.83792 13.0875 4.83792 12.6348 5.11711 12.3556Z" fill="#AF996B"/>
<path fill-rule="evenodd" clip-rule="evenodd" d="M28.0935 12.3198C28.3727 12.599 28.3727 13.0516 28.0935 13.3308L21.0014 20.4229C20.7222 20.7021 20.2696 20.7021 19.9904 20.4229C19.7112 20.1437 19.7112 19.6911 19.9904 19.4119L27.0825 12.3198C27.3617 12.0406 27.8143 12.0406 28.0935 12.3198ZM17.0941 23.3192C17.3733 23.5984 17.3733 24.051 17.0941 24.3302L6.09471 35.3296C5.81551 35.6088 5.36285 35.6088 5.08366 35.3296C4.80447 35.0504 4.80447 34.5978 5.08366 34.3186L16.0831 23.3192C16.3623 23.04 16.8149 23.04 17.0941 23.3192Z" fill="#AF996B"/>
<path fill-rule="evenodd" clip-rule="evenodd" d="M0.314209 23.8259C0.314209 23.431 0.634288 23.111 1.02912 23.111H32.1212C32.516 23.111 32.8361 23.431 32.8361 23.8259C32.8361 24.2207 32.516 24.5408 32.1212 24.5408H1.02912C0.634288 24.5408 0.314209 24.2207 0.314209 23.8259Z" fill="#AF996B"/>
<path fill-rule="evenodd" clip-rule="evenodd" d="M23.7757 9.53604C24.1705 9.53604 24.4906 9.85612 24.4906 10.251V16.6355C24.4906 17.0303 24.1705 17.3504 23.7757 17.3504C23.3809 17.3504 23.0608 17.0303 23.0608 16.6355V10.251C23.0608 9.85612 23.3809 9.53604 23.7757 9.53604Z" fill="#AF996B"/>
<path fill-rule="evenodd" clip-rule="evenodd" d="M23.0608 16.6377C23.0608 16.2429 23.3809 15.9228 23.7757 15.9228H30.1602C30.5551 15.9228 30.8751 16.2429 30.8751 16.6377C30.8751 17.0325 30.5551 17.3526 30.1602 17.3526H23.7757C23.3809 17.3526 23.0608 17.0325 23.0608 16.6377Z" fill="#AF996B"/>
<path fill-rule="evenodd" clip-rule="evenodd" d="M29.0115 0.924103C29.4064 0.924103 29.7265 1.24418 29.7265 1.63902V10.8106C29.7265 11.2054 29.4064 11.5255 29.0115 11.5255C28.6167 11.5255 28.2966 11.2054 28.2966 10.8106V1.63902C28.2966 1.24418 28.6167 0.924103 29.0115 0.924103Z" fill="#AF996B"/>
<path fill-rule="evenodd" clip-rule="evenodd" d="M23.9909 2.0088C24.2701 1.72961 24.7227 1.72961 25.0019 2.0088L29.515 6.52184C29.7942 6.80103 29.7942 7.25369 29.515 7.53288C29.2358 7.81207 28.7831 7.81207 28.5039 7.53288L23.9909 3.01985C23.7117 2.74065 23.7117 2.28799 23.9909 2.0088Z" fill="#AF996B"/>
<path fill-rule="evenodd" clip-rule="evenodd" d="M34.0301 2.01103C34.3093 2.29022 34.3093 2.74288 34.0301 3.02207L29.5171 7.53511C29.2379 7.8143 28.7852 7.8143 28.506 7.53511C28.2268 7.25592 28.2268 6.80326 28.506 6.52407L33.0191 2.01103C33.2983 1.73184 33.7509 1.73184 34.0301 2.01103Z" fill="#AF996B"/>
<path fill-rule="evenodd" clip-rule="evenodd" d="M29.9446 12.3195C29.9446 11.9246 30.2647 11.6046 30.6595 11.6046H39.8333C40.2281 11.6046 40.5482 11.9246 40.5482 12.3195C40.5482 12.7143 40.2281 13.0344 39.8333 13.0344H30.6595C30.2647 13.0344 29.9446 12.7143 29.9446 12.3195Z" fill="#AF996B"/>
<path fill-rule="evenodd" clip-rule="evenodd" d="M39.4636 7.29624C39.7428 7.57537 39.7429 8.02803 39.4638 8.30729L34.9508 12.8226C34.6717 13.1018 34.219 13.1019 33.9397 12.8228C33.6605 12.5437 33.6604 12.091 33.9395 11.8118L38.4525 7.29649C38.7317 7.01723 39.1843 7.01712 39.4636 7.29624Z" fill="#AF996B"/>
<path fill-rule="evenodd" clip-rule="evenodd" d="M33.9372 11.8139C34.2164 11.5348 34.669 11.5348 34.9482 11.8139L39.4613 16.327C39.7405 16.6062 39.7405 17.0588 39.4613 17.338C39.1821 17.6172 38.7294 17.6172 38.4502 17.338L33.9372 12.825C33.658 12.5458 33.658 12.0931 33.9372 11.8139Z" fill="#AF996B"/>
<path fill-rule="evenodd" clip-rule="evenodd" d="M11.5668 8.63954C11.846 8.36035 12.2987 8.36035 12.5779 8.63954L17.0909 13.1526C17.3701 13.4318 17.3701 13.8844 17.0909 14.1636C16.8117 14.4428 16.359 14.4428 16.0799 14.1636L11.5668 9.65058C11.2876 9.37139 11.2876 8.91873 11.5668 8.63954Z" fill="#AF996B"/>
<path fill-rule="evenodd" clip-rule="evenodd" d="M21.6084 8.64192C21.8875 8.92118 21.8874 9.37384 21.6081 9.65297L17.0929 14.166C16.8136 14.4451 16.361 14.445 16.0818 14.1658C15.8027 13.8865 15.8028 13.4338 16.0821 13.1547L20.5974 8.64167C20.8766 8.36255 21.3293 8.36266 21.6084 8.64192Z" fill="#AF996B"/>
<path fill-rule="evenodd" clip-rule="evenodd" d="M2.30005 16.6377C2.30005 16.2429 2.62013 15.9228 3.01496 15.9228H9.39724C9.79208 15.9228 10.1122 16.2429 10.1122 16.6377C10.1122 17.0325 9.79208 17.3526 9.39724 17.3526H3.01496C2.62013 17.3526 2.30005 17.0325 2.30005 16.6377Z" fill="#AF996B"/>
<path fill-rule="evenodd" clip-rule="evenodd" d="M9.40144 9.5405C9.79628 9.5405 10.1164 9.86058 10.1164 10.2554V16.6377C10.1164 17.0325 9.79628 17.3526 9.40144 17.3526C9.0066 17.3526 8.68652 17.0325 8.68652 16.6377V10.2554C8.68652 9.86058 9.0066 9.5405 9.40144 9.5405Z" fill="#AF996B"/>
<path fill-rule="evenodd" clip-rule="evenodd" d="M6.92749 23.3227C7.20661 23.6019 7.2065 24.0546 6.92724 24.3337L2.41196 28.8468C2.1327 29.1259 1.68004 29.1258 1.40092 28.8465C1.1218 28.5672 1.12191 28.1146 1.40117 27.8355L5.91644 23.3224C6.19571 23.0433 6.64837 23.0434 6.92749 23.3227Z" fill="#AF996B"/>
<path fill-rule="evenodd" clip-rule="evenodd" d="M1.40312 18.8074C1.68224 18.5282 2.1349 18.528 2.41416 18.8072L6.92944 23.3202C7.2087 23.5993 7.20881 24.052 6.92969 24.3312C6.65056 24.6105 6.1979 24.6106 5.91864 24.3315L1.40337 19.8185C1.12411 19.5393 1.12399 19.0867 1.40312 18.8074Z" fill="#AF996B"/>
<path fill-rule="evenodd" clip-rule="evenodd" d="M9.40144 30.3014C9.79628 30.3014 10.1164 30.6215 10.1164 31.0163V37.4008C10.1164 37.7957 9.79628 38.1157 9.40144 38.1157C9.0066 38.1157 8.68652 37.7957 8.68652 37.4008V31.0163C8.68652 30.6215 9.0066 30.3014 9.40144 30.3014Z" fill="#AF996B"/>
<path fill-rule="evenodd" clip-rule="evenodd" d="M2.302 31.014C2.302 30.6192 2.62208 30.2991 3.01692 30.2991H9.40143C9.79627 30.2991 10.1163 30.6192 10.1163 31.014C10.1163 31.4089 9.79627 31.729 9.40143 31.729H3.01692C2.62208 31.729 2.302 31.4089 2.302 31.014Z" fill="#AF996B"/>
<path fill-rule="evenodd" clip-rule="evenodd" d="M16.0843 33.4882C16.3634 33.209 16.8161 33.2089 17.0953 33.488L21.6106 38.001C21.8898 38.2801 21.89 38.7328 21.6108 39.0121C21.3317 39.2913 20.8791 39.2914 20.5998 39.0123L16.0845 34.4993C15.8053 34.2202 15.8051 33.7675 16.0843 33.4882Z" fill="#AF996B"/>
<path fill-rule="evenodd" clip-rule="evenodd" d="M17.0931 33.4859C17.3723 33.7651 17.3723 34.2178 17.0931 34.497L12.5801 39.01C12.3009 39.2892 11.8482 39.2892 11.569 39.01C11.2898 38.7308 11.2898 38.2781 11.569 37.9989L16.0821 33.4859C16.3612 33.2067 16.8139 33.2067 17.0931 33.4859Z" fill="#AF996B"/>
<path fill-rule="evenodd" clip-rule="evenodd" d="M23.0652 31.014C23.0652 30.6192 23.3853 30.2991 23.7801 30.2991H30.1624C30.5572 30.2991 30.8773 30.6192 30.8773 31.014C30.8773 31.4089 30.5572 31.729 30.1624 31.729H23.7801C23.3853 31.729 23.0652 31.4089 23.0652 31.014Z" fill="#AF996B"/>
<path fill-rule="evenodd" clip-rule="evenodd" d="M23.7757 30.2991C24.1705 30.2991 24.4906 30.6192 24.4906 31.014V37.3963C24.4906 37.7912 24.1705 38.1112 23.7757 38.1112C23.3809 38.1112 23.0608 37.7912 23.0608 37.3963V31.014C23.0608 30.6192 23.3809 30.2991 23.7757 30.2991Z" fill="#AF996B"/>
<path fill-rule="evenodd" clip-rule="evenodd" d="M31.7738 18.805C32.053 19.0842 32.0529 19.5369 31.7738 19.8161L27.2607 24.3291C26.9815 24.6083 26.5289 24.6083 26.2497 24.3291C25.9705 24.0499 25.9705 23.5973 26.2497 23.3181L30.7627 18.805C31.0419 18.5258 31.4946 18.5258 31.7738 18.805Z" fill="#AF996B"/>
<path fill-rule="evenodd" clip-rule="evenodd" d="M26.2471 23.3205C26.5262 23.0412 26.9789 23.0411 27.2582 23.3202L31.7734 27.8333C32.0527 28.1124 32.0528 28.565 31.7737 28.8443C31.4946 29.1236 31.0419 29.1237 30.7626 28.8446L26.2474 24.3315C25.9681 24.0524 25.968 23.5997 26.2471 23.3205Z" fill="#AF996B"/>
<path fill-rule="evenodd" clip-rule="evenodd" d="M16.933 13.0334C17.278 13.2253 17.4021 13.6607 17.2101 14.0057L13.5768 20.5357C13.3849 20.8807 12.9495 21.0048 12.6045 20.8129C12.2595 20.6209 12.1354 20.1856 12.3274 19.8405L15.9606 13.3105C16.1526 12.9655 16.5879 12.8414 16.933 13.0334Z" fill="#AF996B"/>
<path fill-rule="evenodd" clip-rule="evenodd" d="M17.2461 13.3843C17.3973 13.7491 17.2241 14.1673 16.8594 14.3185L9.67123 17.2981C9.30649 17.4493 8.88824 17.2762 8.73705 16.9114C8.58586 16.5467 8.75898 16.1285 9.12372 15.9773L16.3119 12.9977C16.6766 12.8465 17.0949 13.0196 17.2461 13.3843Z" fill="#AF996B"/>
<path fill-rule="evenodd" clip-rule="evenodd" d="M13.5633 19.8538C13.7554 20.1988 13.6314 20.6341 13.2864 20.8262L6.75641 24.4617C6.41143 24.6538 5.97607 24.5298 5.78401 24.1848C5.59195 23.8398 5.71591 23.4045 6.06089 23.2124L12.5909 19.5769C12.9359 19.3849 13.3712 19.5088 13.5633 19.8538Z" fill="#AF996B"/>
<path fill-rule="evenodd" clip-rule="evenodd" d="M9.66181 15.9884C10.0265 16.1396 10.1997 16.5579 10.0485 16.9226L7.06889 24.1108C6.9177 24.4755 6.49945 24.6486 6.13471 24.4974C5.76996 24.3463 5.59685 23.928 5.74804 23.5633L8.72762 16.3751C8.87882 16.0104 9.29706 15.8372 9.66181 15.9884Z" fill="#AF996B"/>
<path fill-rule="evenodd" clip-rule="evenodd" d="M5.78401 23.4669C5.97607 23.1219 6.41143 22.9979 6.75641 23.19L13.2864 26.8255C13.6314 27.0176 13.7554 27.4529 13.5633 27.7979C13.3712 28.1429 12.9359 28.2668 12.5909 28.0748L6.06089 24.4393C5.71591 24.2472 5.59195 23.8118 5.78401 23.4669Z" fill="#AF996B"/>
<path fill-rule="evenodd" clip-rule="evenodd" d="M6.13471 23.1542C6.49945 23.003 6.9177 23.1761 7.06889 23.5409L10.0485 30.729C10.1997 31.0938 10.0265 31.512 9.66181 31.6632C9.29706 31.8144 8.87882 31.6413 8.72762 31.2765L5.74804 24.0884C5.59685 23.7236 5.76996 23.3054 6.13471 23.1542Z" fill="#AF996B"/>
<path fill-rule="evenodd" clip-rule="evenodd" d="M12.6045 26.8389C12.9495 26.6469 13.3849 26.771 13.5768 27.116L17.2101 33.646C17.4021 33.9911 17.278 34.4264 16.933 34.6184C16.5879 34.8103 16.1526 34.6863 15.9606 34.3412L12.3274 27.8112C12.1354 27.4662 12.2595 27.0309 12.6045 26.8389Z" fill="#AF996B"/>
<path fill-rule="evenodd" clip-rule="evenodd" d="M8.73705 30.7403C8.88824 30.3756 9.30649 30.2024 9.67123 30.3536L16.8594 33.3332C17.2241 33.4844 17.3973 33.9027 17.2461 34.2674C17.0949 34.6321 16.6766 34.8053 16.3119 34.6541L9.12372 31.6745C8.75898 31.5233 8.58586 31.105 8.73705 30.7403Z" fill="#AF996B"/>
<path fill-rule="evenodd" clip-rule="evenodd" d="M20.546 26.839C20.8909 27.031 21.0149 27.4664 20.8228 27.8114L17.1873 34.3414C16.9953 34.6864 16.5599 34.8103 16.2149 34.6183C15.87 34.4262 15.746 33.9909 15.9381 33.6459L19.5736 27.1159C19.7656 26.7709 20.201 26.6469 20.546 26.839Z" fill="#AF996B"/>
<path fill-rule="evenodd" clip-rule="evenodd" d="M24.4136 30.7404C24.5648 31.1051 24.3916 31.5234 24.0269 31.6745L16.8364 34.6541C16.4717 34.8052 16.0535 34.6321 15.9023 34.2673C15.7512 33.9026 15.9243 33.4843 16.2891 33.3332L23.4795 30.3536C23.8443 30.2024 24.2625 30.3756 24.4136 30.7404Z" fill="#AF996B"/>
<path fill-rule="evenodd" clip-rule="evenodd" d="M27.3663 23.4669C27.5584 23.8118 27.4344 24.2472 27.0894 24.4393L20.5594 28.0748C20.2144 28.2668 19.7791 28.1429 19.587 27.7979C19.3949 27.4529 19.5189 27.0176 19.8639 26.8255L26.3939 23.19C26.7389 22.9979 27.1742 23.1219 27.3663 23.4669Z" fill="#AF996B"/>
<path fill-rule="evenodd" clip-rule="evenodd" d="M27.0153 23.1542C27.3801 23.3054 27.5532 23.7236 27.402 24.0884L24.4224 31.2765C24.2712 31.6413 23.853 31.8144 23.4882 31.6632C23.1235 31.512 22.9504 31.0938 23.1016 30.729L26.0811 23.5409C26.2323 23.1761 26.6506 23.003 27.0153 23.1542Z" fill="#AF996B"/>
</svg>
